HIERARCHY
ROOT hip
{
	OFFSET 0.000000 0.000000 0.000000
	CHANNELS 6 Xposition Yposition Zposition Xrotation Zrotation Yrotation 
	JOINT abdomen
	{
		OFFSET 0.000000 3.422050 0.000000
		CHANNELS 3 Xrotation Zrotation Yrotation 
		JOINT chest
		{
			OFFSET 0.000000 8.486693 -0.684411
			CHANNELS 3 Xrotation Zrotation Yrotation 
			JOINT neck
			{
				OFFSET 0.000000 10.266162 -0.273764
				CHANNELS 3 Xrotation Zrotation Yrotation 
				JOINT head
				{
					OFFSET 0.000000 3.148285 0.000000
					CHANNELS 3 Xrotation Zrotation Yrotation 
					End Site
					{
						OFFSET 0.000000 3.148289 0.000000
					}
				}
			}
			JOINT lCollar
			{
				OFFSET 3.422053 6.707223 -0.821293
				CHANNELS 3 Yrotation Zrotation Xrotation 
				JOINT lShldr
				{
					OFFSET 3.285171 0.000000 0.000000
					CHANNELS 3 Zrotation Yrotation Xrotation 
					JOINT lForeArm
					{
						OFFSET 10.129278 0.000000 0.000000
						CHANNELS 3 Yrotation Zrotation Xrotation 
						JOINT lHand
						{
							OFFSET 8.486692 0.000000 0.000000
							CHANNELS 3 Zrotation Yrotation Xrotation 
							End Site
							{
								OFFSET 4.106464 0.000000 0.000000
							}
						}
					}
				}
			}
			JOINT rCollar
			{
				OFFSET -3.558935 6.707223 -0.821293
				CHANNELS 3 Yrotation Zrotation Xrotation 
				JOINT rShldr
				{
					OFFSET -3.148289 0.000000 0.000000
					CHANNELS 3 Zrotation Yrotation Xrotation 
					JOINT rForeArm
					{
						OFFSET -10.266159 0.000000 0.000000
						CHANNELS 3 Yrotation Zrotation Xrotation 
						JOINT rHand
						{
							OFFSET -8.349810 0.000000 0.000000
							CHANNELS 3 Zrotation Yrotation Xrotation 
							End Site
							{
								OFFSET -4.106464 0.000000 0.000000
							}
						}
					}
				}
			}
		}
	}
	JOINT lThigh
	{
		OFFSET 5.338403 -1.642589 1.368821
		CHANNELS 3 Xrotation Zrotation Yrotation 
		JOINT lShin
		{
			OFFSET -2.053232 -20.121670 0.000000
			CHANNELS 3 Xrotation Zrotation Yrotation 
			JOINT lFoot
			{
				OFFSET 0.000000 -19.300380 -1.231939
				CHANNELS 3 Xrotation Yrotation Zrotation 
				End Site
				{
					OFFSET 0.000000 -2.463878 4.653993
				}
			}
		}
	}
	JOINT rThigh
	{
		OFFSET -5.338403 -1.642589 1.368821
		CHANNELS 3 Xrotation Zrotation Yrotation 
		JOINT rShin
		{
			OFFSET 2.053232 -20.121670 0.000000
			CHANNELS 3 Xrotation Zrotation Yrotation 
			JOINT rFoot
			{
				OFFSET 0.000000 -19.300380 -1.231939
				CHANNELS 3 Xrotation Yrotation Zrotation 
				End Site
				{
					OFFSET 0.000000 -2.463878 4.653993
				}
			}
		}
	}
}
MOTION
Frames: 13
Frame Time: 0.033264
0.820027 30.406061 1.695452 32.923565 0.000000 0.000000 -12.453085 -0.941251 -0.743387 7.668749 -5.850243 -7.695406 8.227589 0.000000 0.000000 13.739895 -0.063421 -0.002475 -39.856266 -5.925742 -10.533960 -43.958385 23.169876 -6.324881 -61.094040 -23.278193 -9.875803 41.533909 -14.012861 -31.747738 -20.731863 46.817440 10.895830 34.947205 -15.092116 -4.409751 12.072030 38.601105 8.535994 24.997484 19.998671 -49.000504 -33.042534 59.452988 -11.837955 85.352699 0.193814 -0.393880 67.770668 11.056763 -38.631252 -33.014725 -59.501308 11.749505 85.344025 -0.251447 0.409685 67.738930 -11.090732 38.548420 
0.820027 30.418976 1.600685 33.349262 0.000000 0.000000 -12.453085 -0.941251 -0.743387 7.668748 -5.850242 -7.695405 7.592625 0.000000 0.000000 12.718084 -0.061992 -0.001865 -39.857742 -5.725362 -10.612383 -43.964516 23.153372 -6.327185 -61.525089 -23.358885 -10.024731 41.629147 -13.884435 -31.641851 -20.731863 46.817440 10.895830 34.945400 -15.286974 -4.429208 12.072030 38.601105 8.535994 24.997484 19.998671 -49.000504 -34.046032 59.205952 -12.528463 85.658684 0.218766 -0.393643 67.852280 10.938763 -38.888710 -34.021435 -59.254078 12.443342 85.650459 -0.276511 0.409112 67.821404 -10.972634 38.806416 
0.820027 30.431892 1.505917 33.774944 0.000000 0.000000 -12.453085 -0.941251 -0.743387 7.668749 -5.850243 -7.695406 6.956912 0.000000 0.000000 11.693083 -0.060548 -0.001280 -39.858932 -5.524985 -10.690767 -43.970638 23.136866 -6.329483 -61.956600 -23.438543 -10.174395 41.724560 -13.756176 -31.535793 -20.731863 46.817440 10.895830 34.943653 -15.481832 -4.448675 12.072030 38.601105 8.535994 24.997484 19.998671 -49.000504 -35.036285 58.952866 -13.205386 85.964615 0.243715 -0.393274 67.933334 10.820406 -39.145897 -35.014828 -59.000740 13.123519 85.956894 -0.301572 0.408404 67.903305 -10.854177 39.064129 
0.820027 30.444809 1.411150 34.200596 0.000000 0.000000 -12.453085 -0.941251 -0.743387 7.668748 -5.850242 -7.695405 6.320486 0.000000 0.000000 10.665033 -0.059090 -0.000719 -39.859863 -5.324610 -10.769126 -43.976776 23.120365 -6.331782 -62.388561 -23.517159 -10.324791 41.820179 -13.628098 -31.429586 -20.731863 46.817440 10.895830 34.941982 -15.676682 -4.468153 12.072030 38.601105 8.535994 24.997484 19.998671 -49.000504 -36.013275 58.693871 -13.868709 86.270569 0.268662 -0.392771 68.013802 10.701699 -39.402798 -35.994877 -58.741478 13.790005 86.263298 -0.326627 0.407563 67.984627 -10.735365 39.321564 
0.820027 30.457724 1.316382 34.626183 0.000000 0.000000 -12.453085 -0.941251 -0.743387 7.668748 -5.850242 -7.695405 5.683385 0.000000 0.000000 9.634088 -0.057617 -0.000183 -39.860508 -5.124239 -10.847451 -43.982899 23.103863 -6.334078 -62.820946 -23.594719 -10.475901 41.915970 -13.500183 -31.323210 -20.731863 46.817440 10.895830 34.940372 -15.871530 -4.487645 12.072030 38.601105 8.535994 24.997484 19.998671 -49.000504 -36.976994 58.429169 -14.518417 86.576515 0.293604 -0.392135 68.093689 10.582643 -39.659412 -36.961544 -58.476448 14.442789 86.569695 -0.351676 0.406588 68.065361 -10.616200 39.578705 
0.820027 30.470640 1.221615 35.051723 0.000000 0.000000 -12.453085 -0.941251 -0.743387 7.668748 -5.850242 -7.695405 5.045648 0.000000 0.000000 8.600405 -0.056132 0.000328 -39.860893 -4.923876 -10.925750 -43.989010 23.087355 -6.336368 -63.253754 -23.671223 -10.627715 42.011963 -13.372456 -31.216681 -20.731863 46.817440 10.895830 34.938835 -16.066372 -4.507150 12.072030 38.601105 8.535994 24.997484 19.998671 -49.000504 -37.927448 58.158913 -15.154546 86.882408 0.318540 -0.391366 68.172997 10.463242 -39.915737 -37.914871 -58.205830 15.081898 86.876060 -0.376717 0.405479 68.145538 -10.496687 39.835567 
0.820027 30.483557 1.126848 35.477196 0.000000 0.000000 -12.453085 -0.941251 -0.743387 7.668748 -5.850242 -7.695405 4.407312 0.000000 0.000000 7.564140 -0.054633 0.000814 -39.860989 -4.723521 -11.004017 -43.995132 23.070848 -6.338659 -63.687008 -23.746668 -10.780227 42.108143 -13.244906 -31.109985 -20.731863 46.817440 10.895830 34.937355 -16.261209 -4.526666 12.072030 38.601105 8.535994 24.997484 19.998671 -49.000504 -38.864670 57.883259 -15.777112 87.188293 0.343470 -0.390464 68.251717 10.343505 -40.171787 -38.854900 -57.929825 15.707369 87.182404 -0.401750 0.404236 68.225113 -10.376827 40.092136 
0.820027 30.496471 1.032080 35.902576 0.000000 0.000000 -12.453085 -0.941251 -0.743387 7.668748 -5.850242 -7.695405 3.768420 0.000000 0.000000 6.525455 -0.053123 0.001273 -39.860806 -4.523174 -11.082258 -44.001247 23.054340 -6.340946 -64.120621 -23.821041 -10.933417 42.204506 -13.117533 -31.003130 -20.731863 46.817440 10.895830 34.935959 -16.456038 -4.546197 12.072030 38.601105 8.535994 24.997484 19.998671 -49.000504 -39.788719 57.602413 -16.386179 87.494156 0.368392 -0.389428 68.329872 10.223435 -40.427551 -39.781647 -57.648544 16.319250 87.488724 -0.426773 0.402860 68.304115 -10.256639 40.348419 
0.820027 30.509388 0.937313 36.327869 0.000000 0.000000 -12.453085 -0.941251 -0.743387 7.668748 -5.850242 -7.695405 3.129007 0.000000 0.000000 5.484512 -0.051601 0.001706 -39.860359 -4.322840 -11.160477 -44.007378 23.037840 -6.343235 -64.554619 -23.894331 -11.087274 42.301071 -12.990346 -30.896122 -20.731863 46.817440 10.895830 34.934616 -16.650858 -4.565742 12.072030 38.601105 8.535994 24.997484 19.998671 -49.000504 -40.699665 57.316490 -16.981829 87.799965 0.393306 -0.388260 68.407440 10.103028 -40.683022 -40.695194 -57.362175 16.917618 87.795021 -0.451786 0.401349 68.382523 -10.136106 40.604408 
0.820027 30.522305 0.842545 36.753059 0.000000 0.000000 -12.453085 -0.941251 -0.743387 7.668749 -5.850243 -7.695406 2.489113 0.000000 0.000000 4.441478 -0.050068 0.002111 -39.859638 -4.122520 -11.238671 -44.013485 23.021332 -6.345517 -64.988983 -23.966541 -11.241786 42.397812 -12.863339 -30.788954 -20.731863 46.817440 10.895830 34.933350 -16.845669 -4.585301 12.072030 38.601105 8.535994 24.997484 19.998671 -49.000504 -41.597595 57.025719 -17.564146 88.105743 0.418209 -0.386960 68.484421 9.982303 -40.938210 -41.595661 -57.070938 17.502579 88.101265 -0.476787 0.399706 68.460342 -10.015245 40.860107 
0.820027 30.535219 0.747778 37.178120 0.000000 0.000000 -12.453085 -0.941251 -0.743387 7.668748 -5.850242 -7.695405 1.848777 0.000000 0.000000 3.396514 -0.048526 0.002490 -39.858646 -3.922216 -11.316845 -44.019592 23.004824 -6.347798 -65.423683 -24.037659 -11.396942 42.494755 -12.736521 -30.681627 -20.731863 46.817440 10.895830 34.932144 -17.040468 -4.604875 12.072030 38.601105 8.535994 24.997484 19.998671 -49.000504 -42.482605 56.730228 -18.133234 88.411499 0.443102 -0.385526 68.560822 9.861253 -41.193104 -42.483101 -56.774921 18.074215 88.407455 -0.501776 0.397929 68.537582 -9.894060 41.115513 
0.820027 30.548136 0.653010 37.603065 0.000000 0.000000 -12.453085 -0.941251 -0.743387 7.668749 -5.850243 -7.695406 1.208041 0.000000 0.000000 2.349797 -0.046974 0.002841 -39.857368 -3.721927 -11.394996 -44.025707 22.988317 -6.350078 -65.858711 -24.107677 -11.552726 42.591877 -12.609885 -30.574137 -20.731863 46.817440 10.895830 34.931015 -17.235254 -4.624463 12.072030 38.601105 8.535994 24.997484 19.998671 -49.000504 -43.354797 56.430149 -18.689205 88.717178 0.467983 -0.383960 68.636650 9.739884 -41.447712 -43.357655 -56.474331 18.632658 88.713623 -0.526750 0.396019 68.614235 -9.772552 41.370632 
0.820027 30.561050 0.558243 38.027870 0.000000 0.000000 -12.453085 -0.941251 -0.743387 7.668748 -5.850242 -7.695405 0.566943 0.000000 0.000000 1.301491 -0.045414 0.003163 -39.855824 -3.521657 -11.473126 -44.031826 22.971813 -6.352355 -66.294067 -24.176598 -11.709129 42.689186 -12.483438 -30.466490 -20.731863 46.817440 10.895830 34.929955 -17.430031 -4.644067 12.072030 38.601105 8.535994 24.997484 19.998671 -49.000504 -44.214314 56.125702 -19.232199 89.022827 0.492851 -0.382262 68.711876 9.618207 -41.702030 -44.219444 -56.169312 19.178038 89.019714 -0.551710 0.393975 68.690300 -9.650730 41.625446 
